<?xml version="1.0" encoding="iso-8859-1"?>
<!-- Generator: Adobe Illustrator 16.0.0, SVG Export Plug-In . SVG Version: 6.00 Build 0)  -->
<!DOCTYPE svg PUBLIC "-//W3C//DTD SVG 1.1//EN" "http://www.w3.org/Graphics/SVG/1.1/DTD/svg11.dtd">
<svg version="1.1" id="Capa_1" xmlns="http://www.w3.org/2000/svg" xmlns:xlink="http://www.w3.org/1999/xlink" x="0px" y="0px"
	 width="19.834px" height="19.834px" viewBox="0 0 49.834 49.834" style="enable-background:new 0 0 49.834 49.834;"
	 xml:space="preserve" stroke="white" stroke-linecap="round">
<g>
	<path d="M1.088,49.834h6.975c0.345,0,0.625-0.28,0.625-0.625v-7.625c0-0.346-0.28-0.625-0.625-0.625H1.088
		c-0.345,0-0.625,0.279-0.625,0.625v7.625C0.463,49.554,0.743,49.834,1.088,49.834z M1.713,42.209h5.725v6.375H1.713V42.209z" />
	<path d="M10.957,49.834h6.975c0.345,0,0.625-0.28,0.625-0.625v-7.625c0-0.346-0.28-0.625-0.625-0.625h-6.975
		c-0.345,0-0.625,0.279-0.625,0.625v7.625C10.332,49.554,10.612,49.834,10.957,49.834z M11.582,42.209h5.725v6.375h-5.725V42.209z"
		/>
	<path d="M21.226,40.959c-0.345,0-0.625,0.279-0.625,0.625v7.625c0,0.345,0.28,0.625,0.625,0.625h6.975
		c0.345,0,0.625-0.28,0.625-0.625v-7.625c0-0.346-0.28-0.625-0.625-0.625H21.226z M27.576,48.584h-5.725v-6.375h5.725V48.584z"/>
	<path d="M31.314,49.834h6.975c0.346,0,0.625-0.28,0.625-0.625v-7.625c0-0.346-0.279-0.625-0.625-0.625h-6.975
		c-0.346,0-0.625,0.279-0.625,0.625v7.625C30.689,49.554,30.971,49.834,31.314,49.834z M31.939,42.209h5.725v6.375h-5.725V42.209z"
		/>
	<path d="M48.746,40.959h-6.975c-0.346,0-0.625,0.279-0.625,0.625v7.625c0,0.345,0.279,0.625,0.625,0.625h6.975
		c0.345,0,0.625-0.28,0.625-0.625v-7.625C49.371,41.238,49.091,40.959,48.746,40.959z M48.121,48.584h-5.725v-6.375h5.725V48.584z"
		/>
	<path d="M1.088,40.127h6.975c0.345,0,0.625-0.279,0.625-0.625v-7.625c0-0.345-0.28-0.625-0.625-0.625H1.088
		c-0.345,0-0.625,0.28-0.625,0.625v7.625C0.463,39.848,0.743,40.127,1.088,40.127z M1.713,32.502h5.725v6.375H1.713V32.502z"/>
	<path d="M17.932,31.252h-6.975c-0.345,0-0.625,0.28-0.625,0.625v7.625c0,0.346,0.28,0.625,0.625,0.625h6.975
		c0.345,0,0.625-0.279,0.625-0.625v-7.625C18.557,31.532,18.276,31.252,17.932,31.252z M17.307,38.877h-5.725v-6.375h5.725V38.877z"
		/>
	<path d="M38.914,31.877c0-0.345-0.279-0.625-0.625-0.625h-6.975c-0.346,0-0.625,0.28-0.625,0.625v7.625
		c0,0.346,0.279,0.625,0.625,0.625h6.975c0.346,0,0.625-0.279,0.625-0.625V31.877z M37.664,38.877h-5.725v-6.375h5.725V38.877z"/>
	<path d="M18.557,21.605c0-0.345-0.28-0.625-0.625-0.625h-6.975c-0.345,0-0.625,0.28-0.625,0.625v7.625
		c0,0.345,0.28,0.625,0.625,0.625h6.975c0.345,0,0.625-0.28,0.625-0.625V21.605z M17.307,28.605h-5.725v-6.375h5.725V28.605z"/>
	<path d="M38.914,21.605c0-0.345-0.279-0.625-0.625-0.625h-6.975c-0.346,0-0.625,0.28-0.625,0.625v7.625
		c0,0.345,0.279,0.625,0.625,0.625h6.975c0.346,0,0.625-0.28,0.625-0.625V21.605z M37.664,28.605h-5.725v-6.375h5.725V28.605z"/>
	<path d="M38.914,11.114c0-0.345-0.279-0.625-0.625-0.625h-6.975c-0.346,0-0.625,0.28-0.625,0.625v7.625
		c0,0.345,0.279,0.625,0.625,0.625h6.975c0.346,0,0.625-0.28,0.625-0.625V11.114z M37.664,18.114h-5.725v-6.375h5.725V18.114z"/>
	<path d="M38.914,0.625C38.914,0.28,38.635,0,38.289,0h-6.975c-0.346,0-0.625,0.28-0.625,0.625V8.25
		c0,0.345,0.279,0.625,0.625,0.625h6.975c0.346,0,0.625-0.28,0.625-0.625V0.625z M37.664,7.625h-5.725V1.25h5.725V7.625z"/>
	<path d="M49.371,31.877c0-0.345-0.28-0.625-0.625-0.625h-6.975c-0.346,0-0.625,0.28-0.625,0.625v7.625
		c0,0.346,0.279,0.625,0.625,0.625h6.975c0.345,0,0.625-0.279,0.625-0.625V31.877z M48.121,38.877h-5.725v-6.375h5.725V38.877z"/>
	<path d="M49.371,21.605c0-0.345-0.28-0.625-0.625-0.625h-6.975c-0.346,0-0.625,0.28-0.625,0.625v7.625
		c0,0.345,0.279,0.625,0.625,0.625h6.975c0.345,0,0.625-0.28,0.625-0.625V21.605z M48.121,28.605h-5.725v-6.375h5.725V28.605z"/>
	<path d="M49.371,11.114c0-0.345-0.28-0.625-0.625-0.625h-6.975c-0.346,0-0.625,0.28-0.625,0.625v7.625
		c0,0.345,0.279,0.625,0.625,0.625h6.975c0.345,0,0.625-0.28,0.625-0.625V11.114z M48.121,18.114h-5.725v-6.375h5.725V18.114z"/>
</g>
<g>
</g>
<g>
</g>
<g>
</g>
<g>
</g>
<g>
</g>
<g>
</g>
<g>
</g>
<g>
</g>
<g>
</g>
<g>
</g>
<g>
</g>
<g>
</g>
<g>
</g>
<g>
</g>
<g>
</g>
</svg>
